<?xml version="1.0"?>
<svg xmlns="http://www.w3.org/2000/svg" xmlns:xlink="http://www.w3.org/1999/xlink" version="1.1" x="0px" y="0px" width="32px" height="32px" viewBox="0 0 512 512" style="enable-background:new 0 0 512 512;" xml:space="preserve" class=""><g><script xmlns=""/><g id="Guides_For_Artboard">
</g><g id="Artwork">
</g><g id="Layer_3">
	<g>
		<circle style="fill:#ff9999;" cx="255.116" cy="254.553" r="245" data-original="#D46A56" class=""/>
		<g>


			<path style="fill:#fff;" d="M361.87,193.062c2.564-0.047,5.071-0.093,7.508-0.093c10.757,0,16.063,1.052,18.925,3.755     c2.549,2.407,6.828,9.75,6.828,31.886c0,22.133-4.279,29.478-6.828,31.885c-2.864,2.705-8.172,3.757-18.927,3.757     c-2.438,0-4.944-0.046-7.509-0.093c-0.419-0.008-0.85-0.014-1.271-0.021v6.713l-0.002-6.713     c-0.065-0.001-0.132-0.002-0.197-0.003c-0.662,11.574-3.065,21.73-6.961,30.588c2.673,0.004,5.303,0.051,7.875,0.098     c2.754,0.049,5.446,0.097,8.065,0.097c29.306,0,56.42-8.032,56.42-66.309c0-58.274-27.114-66.307-56.418-66.307     c-2.616,0-5.312,0.048-8.067,0.097c-0.235,0.004-0.478,0.008-0.715,0.012v30.67C361.02,193.075,361.45,193.069,361.87,193.062z" data-original="#E9E9EB" class=""/>
			<path style="fill:#F8F8F8" d="M313.809,333.481c17.897-8.335,31.783-20.921,39.627-38.758     c3.896-8.858,6.299-19.014,6.961-30.588c0.119-2.097,0.19-4.234,0.194-6.426l0.003,6.429l0.002,6.713v-6.713v-71.055v-30.67     v-0.896c0-24.221-3.795-27.429-28.063-27.429H148.441c-24.268,0-28.062,3.208-28.062,27.429l0.006,96.193     c0,39.298,19.589,63.176,48.97,76.762c4.23,1.957,3.623,5.323,3.623,5.323v3.679h135.017c0-1.848,0-3.325,0-4.09     C307.996,335.77,311.615,334.755,313.809,333.481z" data-original="#F8F8F8" class="active-path"/>
			<path style="fill:#fff;" d="M100.21,343.473c-8.71,0-15.773,7.063-15.773,15.774s7.063,15.772,15.773,15.772h293.366     c8.711,0,15.774-7.061,15.774-15.772s-7.063-15.774-15.774-15.774h-85.58H172.979H100.21z" data-original="#E9E9EB" class=""/>
		</g>
	</g>
</g></g> </svg>
